<svg xmlns="http://www.w3.org/2000/svg" version="1.1" xmlns:xlink="http://www.w3.org/1999/xlink" xmlns:svgjs="http://svgjs.dev/svgjs" width="1500" height="935" viewBox="0 0 1500 935"><g transform="matrix(1,0,0,1,-0.9090909090909918,0.3785425101214628)"><svg viewBox="0 0 396 247" data-background-color="#c8c8c8" preserveAspectRatio="xMidYMid meet" height="935" width="1500" xmlns="http://www.w3.org/2000/svg" xmlns:xlink="http://www.w3.org/1999/xlink"><g id="tight-bounds" transform="matrix(1,0,0,1,0.2400000000000091,-0.09999999999999432)"><svg viewBox="0 0 395.52 247.2" height="247.2" width="395.52"><g><svg></svg></g><g><svg viewBox="0 0 395.52 247.2" height="247.2" width="395.52"><g transform="matrix(1,0,0,1,75.54432,61.62925926095334)"><svg viewBox="0 0 244.43135999999998 123.94148147809331" height="123.94148147809331" width="244.43135999999998"><g><svg viewBox="0 0 244.43135999999998 123.94148147809331" height="123.94148147809331" width="244.43135999999998"><g><svg viewBox="0 0 244.43135999999998 123.94148147809331" height="123.94148147809331" width="244.43135999999998"><g><svg viewBox="0 0 244.43135999999998 123.94148147809331" height="123.94148147809331" width="244.43135999999998"><g id="textblocktransform"><svg viewBox="0 0 244.43135999999998 123.94148147809331" height="123.94148147809331" width="244.43135999999998" id="textblock"><g><svg viewBox="0 0 244.43135999999998 86.34142567164179" height="86.34142567164179" width="244.43135999999998"><g transform="matrix(1,0,0,1,0,0)"><svg width="244.43135999999998" viewBox="0.8 -34.9 100.5 35.5" height="86.34142567164179" data-palette-color="#000000"><path d="M15.5 0.6Q9.05 0.6 4.93-1.73 0.8-4.05 0.8-8.35L0.8-8.35Q0.8-9.65 1.2-11.15L1.2-11.15 8.55-11.15Q8.5-10.95 8.4-10.43 8.3-9.9 8.3-9.55L8.3-9.55Q8.3-7.7 10.03-6.63 11.75-5.55 14.95-5.55L14.95-5.55Q18.95-5.55 20.78-6.7 22.6-7.85 22.6-9.75L22.6-9.75Q22.6-11 21.65-11.88 20.7-12.75 19.25-13.33 17.8-13.9 15.3-14.65L15.3-14.65Q11.8-15.7 9.63-16.65 7.45-17.6 5.9-19.4 4.35-21.2 4.35-24L4.35-24Q4.35-27.55 6.23-30 8.1-32.45 11.33-33.68 14.55-34.9 18.6-34.9L18.6-34.9Q24.6-34.9 28.28-32.85 31.95-30.8 31.95-26.7L31.95-26.7Q31.95-25.75 31.7-24.2L31.7-24.2 24.5-24.2Q24.65-24.85 24.65-25.3L24.65-25.3Q24.65-26.9 23.13-27.83 21.6-28.75 18.9-28.75L18.9-28.75Q15.55-28.75 13.68-27.78 11.8-26.8 11.8-25.1L11.8-25.1Q11.8-24 12.7-23.25 13.6-22.5 14.93-22.03 16.25-21.55 18.75-20.8L18.75-20.8Q22.35-19.75 24.63-18.75 26.9-17.75 28.55-15.93 30.2-14.1 30.2-11.25L30.2-11.25Q30.2-7.1 28.13-4.45 26.05-1.8 22.73-0.6 19.4 0.6 15.5 0.6L15.5 0.6ZM43.5 0L45.95-13.85 36.45-34.3 43.9-34.3 50.35-20.3 50.6-20.3 61.85-34.3 69.8-34.3 53.2-13.85 50.75 0 43.5 0ZM67.15 0L73.2-34.3 88.9-34.3Q95.1-34.3 98.2-31.83 101.3-29.35 101.3-24.8L101.3-24.8Q101.3-20.6 99.07-17.8 96.85-15 93.35-13.85L93.35-13.85 97.9 0 90.25 0 86.45-12.8 76.65-12.8 74.4 0 67.15 0ZM77.7-18.85L88-18.85Q90.8-18.85 92.3-20.3 93.8-21.75 93.8-24.25L93.8-24.25Q93.8-26.1 92.62-27.13 91.45-28.15 89.15-28.15L89.15-28.15 79.35-28.15 77.7-18.85Z" opacity="1" transform="matrix(1,0,0,1,0,0)" fill="#000000" class="wordmark-text-0" data-fill-palette-color="primary" id="text-0"></path></svg></g></svg></g><g transform="matrix(1,0,0,1,0,106.7245640785003)"><svg viewBox="0 0 244.43135999999998 17.216917399593015" height="17.216917399593015" width="244.43135999999998"><g transform="matrix(1,0,0,1,0,0)"><svg width="244.43135999999998" viewBox="2.98 -37.5 683.81 48.17" height="17.216917399593015" data-palette-color="#000000"><path d="M20.48-7.25L20.48-7.25Q20.48-6.64 20.18-6.13 19.87-5.62 19.26-5.22L19.26-5.22Q18.63-4.83 17.64-4.6 16.65-4.37 15.33-4.37L15.33-4.37Q14.23-4.37 13.2-4.59 12.16-4.81 11.35-5.3L11.35-5.3Q10.55-5.76 10.03-6.53 9.52-7.3 9.45-8.37L9.45-8.37 2.98-8.37Q2.98-6.76 3.77-5.16 4.57-3.56 6.1-2.32L6.1-2.32Q7.64-1.05 9.92-0.27 12.21 0.51 15.19 0.51L15.19 0.51Q17.9 0.51 20.09-0.09 22.29-0.68 23.85-1.76L23.85-1.76Q25.39-2.83 26.23-4.31 27.08-5.79 27.08-7.54L27.08-7.54Q27.08-9.45 26.23-10.83 25.39-12.21 23.9-13.18L23.9-13.18Q22.41-14.14 20.36-14.75 18.31-15.36 15.92-15.75L15.92-15.75Q14.26-15.99 13.18-16.32 12.11-16.65 11.5-17.07L11.5-17.07Q10.86-17.46 10.62-17.96 10.38-18.46 10.38-19.04L10.38-19.04Q10.38-19.63 10.66-20.15 10.94-20.68 11.47-21.07L11.47-21.07Q12.06-21.51 12.99-21.75 13.92-22 15.16-22L15.16-22Q16.63-22 17.66-21.63 18.7-21.26 19.31-20.65L19.31-20.65Q19.75-20.19 19.97-19.62 20.19-19.04 20.19-18.38L20.19-18.38 26.98-18.38Q26.98-20.21 26.17-21.78 25.37-23.34 23.85-24.49L23.85-24.49Q22.31-25.61 20.12-26.26 17.92-26.9 15.16-26.9L15.16-26.9Q12.52-26.9 10.42-26.25 8.33-25.59 6.86-24.46L6.86-24.46Q5.4-23.34 4.61-21.85 3.83-20.36 3.83-18.73L3.83-18.73Q3.83-17.04 4.6-15.75 5.37-14.45 6.74-13.48L6.74-13.48Q8.11-12.48 10.02-11.78 11.94-11.08 14.26-10.62L14.26-10.62Q16.09-10.28 17.29-9.94 18.48-9.59 19.21-9.2L19.21-9.2Q19.92-8.79 20.2-8.33 20.48-7.86 20.48-7.25ZM32.52-13.45L32.52-13.45 32.52-12.94Q32.52-10.03 33.35-7.58 34.18-5.13 35.79-3.32L35.79-3.32Q37.38-1.51 39.71-0.5 42.04 0.51 45.02 0.51L45.02 0.51Q47.97 0.51 50.29-0.5 52.61-1.51 54.2-3.32L54.2-3.32Q55.78-5.13 56.61-7.58 57.44-10.03 57.44-12.94L57.44-12.94 57.44-13.45Q57.44-16.33 56.61-18.79 55.78-21.24 54.2-23.05L54.2-23.05Q52.59-24.85 50.27-25.88 47.95-26.9 44.97-26.9L44.97-26.9Q41.99-26.9 39.68-25.88 37.38-24.85 35.79-23.05L35.79-23.05Q34.18-21.24 33.35-18.79 32.52-16.33 32.52-13.45ZM39.3-12.94L39.3-12.94 39.3-13.45Q39.3-15.06 39.62-16.5 39.94-17.94 40.62-19.04L40.62-19.04Q41.31-20.14 42.38-20.78 43.45-21.41 44.97-21.41L44.97-21.41Q46.51-21.41 47.58-20.78 48.65-20.14 49.34-19.04L49.34-19.04Q50-17.94 50.31-16.5 50.63-15.06 50.63-13.45L50.63-13.45 50.63-12.94Q50.63-11.28 50.31-9.83 50-8.37 49.34-7.3L49.34-7.3Q48.65-6.2 47.58-5.57 46.51-4.93 45.02-4.93L45.02-4.93Q43.48-4.93 42.39-5.57 41.31-6.2 40.62-7.3L40.62-7.3Q39.94-8.37 39.62-9.83 39.3-11.28 39.3-12.94ZM80.29-3.71L80.68 0 86.84 0 86.84-26.42 80.02-26.42 80.02-7.89Q79.71-7.25 79.27-6.74 78.83-6.23 78.27-5.86L78.27-5.86Q77.61-5.44 76.74-5.22 75.87-5 74.8-5L74.8-5Q73.6-5 72.77-5.3 71.94-5.59 71.43-6.27L71.43-6.27Q70.92-6.93 70.69-8.03 70.45-9.13 70.45-10.74L70.45-10.74 70.45-26.42 63.67-26.42 63.67-10.79Q63.67-7.79 64.34-5.65 65.01-3.52 66.23-2.15L66.23-2.15Q67.45-0.76 69.16-0.12 70.87 0.51 72.92 0.51L72.92 0.51Q75.17 0.51 77.06-0.61 78.95-1.73 80.29-3.71L80.29-3.71ZM93.45-26.42L93.45 0 100.26 0 100.26-18.77Q100.6-19.31 101.02-19.75 101.43-20.19 101.95-20.51L101.95-20.51Q102.58-20.95 103.4-21.17 104.22-21.39 105.19-21.39L105.19-21.39Q106.36-21.39 107.29-21.15 108.22-20.92 108.88-20.34L108.88-20.34Q109.54-19.75 109.89-18.74 110.25-17.72 110.25-16.16L110.25-16.16 110.25 0 117.03 0 117.03-16.26Q117.03-19.14 116.36-21.15 115.69-23.17 114.49-24.46L114.49-24.46Q113.27-25.73 111.61-26.32 109.95-26.9 107.95-26.9L107.95-26.9Q106.39-26.9 105-26.46 103.61-26.03 102.43-25.2L102.43-25.2Q101.75-24.71 101.14-24.1 100.53-23.49 100.02-22.75L100.02-22.75 99.6-26.42 93.45-26.42ZM122.74-13.4L122.74-13.4 122.74-12.89Q122.74-10.01 123.45-7.56 124.16-5.1 125.5-3.32L125.5-3.32Q126.82-1.54 128.74-0.52 130.65 0.49 133.07 0.49L133.07 0.49Q135.29 0.49 136.98-0.37 138.66-1.22 139.91-2.76L139.91-2.76 140.25 0 146.38 0 146.38-37.5 139.57-37.5 139.57-24.05Q138.34-25.42 136.77-26.16 135.2-26.9 133.12-26.9L133.12-26.9Q130.65-26.9 128.74-25.93 126.82-24.95 125.48-23.17L125.48-23.17Q124.14-21.39 123.44-18.9 122.74-16.41 122.74-13.4ZM129.53-12.89L129.53-12.89 129.53-13.4Q129.53-15.06 129.82-16.52 130.12-17.97 130.75-19.07L130.75-19.07Q131.39-20.14 132.4-20.76 133.41-21.39 134.85-21.39L134.85-21.39Q136.59-21.39 137.73-20.64 138.88-19.9 139.57-18.55L139.57-18.55 139.57-7.86Q138.88-6.54 137.72-5.79 136.56-5.03 134.8-5.03L134.8-5.03Q133.36-5.03 132.36-5.64 131.36-6.25 130.73-7.32L130.73-7.32Q130.09-8.37 129.81-9.8 129.53-11.23 129.53-12.89ZM165.91-26.42L165.91-32.89 159.12-32.89 159.12-26.42 153.09-26.42 153.09-21.41 159.12-21.41 159.12-9.4Q159.12-6.79 159.8-4.92 160.49-3.05 161.76-1.86L161.76-1.86Q163-0.63 164.77-0.06 166.54 0.51 168.71 0.51L168.71 0.51Q169.84 0.51 171 0.4 172.16 0.29 173.23 0.1L173.23 0.1Q174.3-0.1 175.26-0.4 176.21-0.71 176.92-1.12L176.92-1.12 176.26-5.79Q175.79-5.66 175.15-5.54 174.5-5.42 173.77-5.32L173.77-5.32Q173.01-5.2 172.19-5.13 171.37-5.05 170.59-5.05L170.59-5.05Q169.52-5.05 168.65-5.3 167.79-5.54 167.18-6.13L167.18-6.13Q166.56-6.69 166.24-7.65 165.91-8.62 165.91-10.06L165.91-10.06 165.91-21.41 175.77-21.41 175.77-26.42 165.91-26.42ZM202.43-26.9L202.43-26.9Q199.77-26.9 197.52-25.62 195.27-24.34 193.66-22.09L193.66-22.09 193.61-22.68 193.34-26.42 187.02-26.42 187.02 0 193.81 0 193.81-15.87Q194.27-16.99 194.98-17.82 195.69-18.65 196.69-19.19L196.69-19.19Q197.52-19.65 198.58-19.89 199.64-20.12 200.96-20.12L200.96-20.12Q202.23-20.12 203.63-19.96 205.04-19.8 206.38-19.48L206.38-19.48 207.38-26.25Q206.58-26.49 205.27-26.7 203.96-26.9 202.43-26.9ZM229.96 0L229.96 0 236.85 0 236.85-0.42Q236.34-1.42 236.07-2.81 235.8-4.2 235.8-6.32L235.8-6.32 235.8-17.65Q235.8-19.95 234.94-21.69 234.09-23.44 232.58-24.58L232.58-24.58Q231.06-25.73 229-26.32 226.94-26.9 224.54-26.9L224.54-26.9Q221.88-26.9 219.82-26.23 217.76-25.56 216.34-24.41L216.34-24.41Q214.9-23.27 214.15-21.75 213.41-20.24 213.41-18.55L213.41-18.55 220.2-18.55Q220.2-19.26 220.4-19.85 220.61-20.43 221.05-20.85L221.05-20.85Q221.54-21.31 222.32-21.57 223.1-21.83 224.18-21.83L224.18-21.83Q225.4-21.83 226.31-21.52 227.23-21.22 227.84-20.65L227.84-20.65Q228.42-20.12 228.72-19.37 229.01-18.63 229.01-17.7L229.01-17.7 229.01-16.14 225.23-16.14Q222.3-16.14 220.04-15.61 217.78-15.09 216.24-14.09L216.24-14.09Q214.53-12.99 213.68-11.29 212.82-9.59 212.82-7.4L212.82-7.4Q212.82-5.69 213.51-4.24 214.19-2.78 215.41-1.73L215.41-1.73Q216.63-0.68 218.33-0.1 220.03 0.49 222.05 0.49L222.05 0.49Q223.3 0.49 224.37 0.26 225.45 0.02 226.35-0.39L226.35-0.39Q227.23-0.78 227.96-1.32 228.69-1.86 229.25-2.47L229.25-2.47Q229.38-1.76 229.55-1.12 229.72-0.49 229.96 0ZM223.49-4.76L223.49-4.76Q222.54-4.76 221.82-4.99 221.1-5.22 220.61-5.62L220.61-5.62Q220.12-6.03 219.87-6.63 219.61-7.23 219.61-7.93L219.61-7.93Q219.61-8.84 219.95-9.61 220.3-10.38 221-10.94L221-10.94Q221.71-11.47 222.83-11.78 223.96-12.08 225.54-12.08L225.54-12.08 229.01-12.08 229.01-7.54Q228.72-7.03 228.21-6.53 227.69-6.03 226.98-5.64L226.98-5.64Q226.28-5.25 225.4-5 224.52-4.76 223.49-4.76ZM255.16-4.93L255.16-4.93Q253.52-4.93 252.46-5.59 251.4-6.25 250.79-7.35L250.79-7.35Q250.15-8.42 249.91-9.85 249.66-11.28 249.66-12.82L249.66-12.82 249.66-13.55Q249.66-15.06 249.92-16.48 250.18-17.9 250.81-18.99L250.81-18.99Q251.42-20.09 252.47-20.75 253.52-21.41 255.13-21.41L255.13-21.41Q256.23-21.41 257.16-21.03 258.09-20.65 258.74-20.02L258.74-20.02Q259.4-19.38 259.75-18.51 260.09-17.63 260.04-16.65L260.04-16.65 266.44-16.65Q266.48-18.99 265.65-20.89 264.82-22.78 263.33-24.12L263.33-24.12Q261.82-25.44 259.75-26.17 257.67-26.9 255.23-26.9L255.23-26.9Q252.18-26.9 249.87-25.85 247.56-24.8 246-23L246-23Q244.44-21.19 243.66-18.76 242.88-16.33 242.88-13.55L242.88-13.55 242.88-12.82Q242.88-10.03 243.67-7.6 244.46-5.18 246.02-3.37L246.02-3.37Q247.56-1.56 249.88-0.52 252.2 0.51 255.28 0.51L255.28 0.51Q257.55 0.51 259.59-0.21 261.63-0.93 263.16-2.2L263.16-2.2Q264.7-3.47 265.59-5.22 266.48-6.98 266.44-9.03L266.44-9.03 260.04-9.03Q260.09-8.11 259.71-7.35 259.33-6.59 258.65-6.05L258.65-6.05Q257.96-5.52 257.06-5.22 256.16-4.93 255.16-4.93ZM280.32-8.06L283.4-10.91 290.9 0 299.22 0 287.87-15.41 297.83-26.42 289.67-26.42 282.37-18.41 280.32-16.06 280.32-37.5 273.54-37.5 273.54 0 280.32 0 280.32-8.06ZM337.64 10.67L337.64 10.67Q339.69 10.67 341.2 9.99 342.7 9.3 343.75 8.3L343.75 8.3Q344.8 7.3 345.49 6.13 346.19 4.96 346.63 3.96L346.63 3.96 360.03-26.42 352.54-26.42 346.51-10.89 345.5-8.25 344.77-10.94 338.72-26.42 331.3-26.42 342.48-1.12 340.91 1.78Q340.62 2.32 340.41 2.61 340.21 2.91 339.77 3.49L339.77 3.49Q339.33 4.08 338.71 4.58 338.08 5.08 337.28 5.08L337.28 5.08Q336.89 5.08 336.24 5.04 335.59 5 335.18 5L335.18 5 334.35 10.18Q335.23 10.42 335.95 10.55 336.67 10.67 337.64 10.67ZM362.54-13.45L362.54-13.45 362.54-12.94Q362.54-10.03 363.37-7.58 364.2-5.13 365.81-3.32L365.81-3.32Q367.4-1.51 369.73-0.5 372.06 0.51 375.04 0.51L375.04 0.51Q378 0.51 380.32-0.5 382.64-1.51 384.22-3.32L384.22-3.32Q385.81-5.13 386.64-7.58 387.47-10.03 387.47-12.94L387.47-12.94 387.47-13.45Q387.47-16.33 386.64-18.79 385.81-21.24 384.22-23.05L384.22-23.05Q382.61-24.85 380.29-25.88 377.97-26.9 374.99-26.9L374.99-26.9Q372.02-26.9 369.71-25.88 367.4-24.85 365.81-23.05L365.81-23.05Q364.2-21.24 363.37-18.79 362.54-16.33 362.54-13.45ZM369.33-12.94L369.33-12.94 369.33-13.45Q369.33-15.06 369.65-16.5 369.97-17.94 370.65-19.04L370.65-19.04Q371.33-20.14 372.41-20.78 373.48-21.41 374.99-21.41L374.99-21.41Q376.53-21.41 377.61-20.78 378.68-20.14 379.36-19.04L379.36-19.04Q380.02-17.94 380.34-16.5 380.66-15.06 380.66-13.45L380.66-13.45 380.66-12.94Q380.66-11.28 380.34-9.83 380.02-8.37 379.36-7.3L379.36-7.3Q378.68-6.2 377.61-5.57 376.53-4.93 375.04-4.93L375.04-4.93Q373.51-4.93 372.42-5.57 371.33-6.2 370.65-7.3L370.65-7.3Q369.97-8.37 369.65-9.83 369.33-11.28 369.33-12.94ZM410.32-3.71L410.71 0 416.86 0 416.86-26.42 410.05-26.42 410.05-7.89Q409.73-7.25 409.29-6.74 408.85-6.23 408.29-5.86L408.29-5.86Q407.63-5.44 406.77-5.22 405.9-5 404.83-5L404.83-5Q403.63-5 402.8-5.3 401.97-5.59 401.46-6.27L401.46-6.27Q400.94-6.93 400.71-8.03 400.48-9.13 400.48-10.74L400.48-10.74 400.48-26.42 393.69-26.42 393.69-10.79Q393.69-7.79 394.36-5.65 395.04-3.52 396.26-2.15L396.26-2.15Q397.48-0.76 399.19-0.12 400.9 0.51 402.95 0.51L402.95 0.51Q405.19 0.51 407.08-0.61 408.98-1.73 410.32-3.71L410.32-3.71ZM442.45-26.9L442.45-26.9Q439.78-26.9 437.54-25.62 435.29-24.34 433.68-22.09L433.68-22.09 433.63-22.68 433.36-26.42 427.04-26.42 427.04 0 433.83 0 433.83-15.87Q434.29-16.99 435-17.82 435.71-18.65 436.71-19.19L436.71-19.19Q437.54-19.65 438.6-19.89 439.66-20.12 440.98-20.12L440.98-20.12Q442.25-20.12 443.65-19.96 445.06-19.8 446.4-19.48L446.4-19.48 447.4-26.25Q446.6-26.49 445.29-26.7 443.98-26.9 442.45-26.9ZM502.45-26.9L502.45-26.9Q499.79-26.9 497.54-25.62 495.3-24.34 493.69-22.09L493.69-22.09 493.64-22.68 493.37-26.42 487.04-26.42 487.04 0 493.83 0 493.83-15.87Q494.3-16.99 495-17.82 495.71-18.65 496.71-19.19L496.71-19.19Q497.54-19.65 498.61-19.89 499.67-20.12 500.99-20.12L500.99-20.12Q502.25-20.12 503.66-19.96 505.06-19.8 506.41-19.48L506.41-19.48 507.41-26.25Q506.6-26.49 505.29-26.7 503.99-26.9 502.45-26.9ZM526.3 0.49L526.3 0.49Q530.13 0.49 532.94-1 535.75-2.49 537.04-4.32L537.04-4.32 533.65-7.98Q532.48-6.47 530.6-5.71 528.72-4.96 526.72-4.96L526.72-4.96Q525.3-4.96 524.1-5.4 522.91-5.83 521.98-6.64L521.98-6.64Q521.08-7.42 520.54-8.39 520-9.35 519.66-10.94L519.66-10.94 519.66-11.01 537.58-11.01 537.58-13.89Q537.58-16.8 536.77-19.2 535.97-21.61 534.43-23.32L534.43-23.32Q532.87-25.02 530.63-25.96 528.4-26.9 525.54-26.9L525.54-26.9Q522.78-26.9 520.44-25.9 518.1-24.9 516.39-23.1L516.39-23.1Q514.68-21.29 513.73-18.79 512.77-16.28 512.77-13.26L512.77-13.26 512.77-12.28Q512.77-9.62 513.74-7.29 514.7-4.96 516.49-3.25L516.49-3.25Q518.27-1.51 520.76-0.51 523.25 0.49 526.3 0.49ZM525.49-21.41L525.49-21.41Q526.79-21.41 527.78-21.01 528.77-20.61 529.45-19.92L529.45-19.92Q530.13-19.21 530.52-18.26 530.91-17.31 530.91-16.24L530.91-16.24 530.91-15.7 519.78-15.7Q520.03-16.99 520.51-18.04 521-19.09 521.73-19.85L521.73-19.85Q522.44-20.61 523.39-21.01 524.35-21.41 525.49-21.41ZM559.99 0L559.99 0 566.87 0 566.87-0.42Q566.36-1.42 566.09-2.81 565.82-4.2 565.82-6.32L565.82-6.32 565.82-17.65Q565.82-19.95 564.97-21.69 564.12-23.44 562.6-24.58L562.6-24.58Q561.09-25.73 559.02-26.32 556.96-26.9 554.57-26.9L554.57-26.9Q551.91-26.9 549.85-26.23 547.78-25.56 546.37-24.41L546.37-24.41Q544.93-23.27 544.18-21.75 543.44-20.24 543.44-18.55L543.44-18.55 550.22-18.55Q550.22-19.26 550.43-19.85 550.64-20.43 551.08-20.85L551.08-20.85Q551.57-21.31 552.35-21.57 553.13-21.83 554.2-21.83L554.2-21.83Q555.42-21.83 556.34-21.52 557.25-21.22 557.87-20.65L557.87-20.65Q558.45-20.12 558.74-19.37 559.04-18.63 559.04-17.7L559.04-17.7 559.04-16.14 555.25-16.14Q552.32-16.14 550.06-15.61 547.81-15.09 546.27-14.09L546.27-14.09Q544.56-12.99 543.7-11.29 542.85-9.59 542.85-7.4L542.85-7.4Q542.85-5.69 543.53-4.24 544.22-2.78 545.44-1.73L545.44-1.73Q546.66-0.68 548.36-0.1 550.05 0.49 552.08 0.49L552.08 0.49Q553.32 0.49 554.4 0.26 555.47 0.02 556.38-0.39L556.38-0.39Q557.25-0.78 557.99-1.32 558.72-1.86 559.28-2.47L559.28-2.47Q559.4-1.76 559.57-1.12 559.75-0.49 559.99 0ZM553.52-4.76L553.52-4.76Q552.57-4.76 551.85-4.99 551.13-5.22 550.64-5.62L550.64-5.62Q550.15-6.03 549.89-6.63 549.64-7.23 549.64-7.93L549.64-7.93Q549.64-8.84 549.98-9.61 550.32-10.38 551.03-10.94L551.03-10.94Q551.74-11.47 552.86-11.78 553.98-12.08 555.57-12.08L555.57-12.08 559.04-12.08 559.04-7.54Q558.74-7.03 558.23-6.53 557.72-6.03 557.01-5.64L557.01-5.64Q556.3-5.25 555.42-5 554.54-4.76 553.52-4.76ZM572.78-13.4L572.78-13.4 572.78-12.89Q572.78-10.01 573.49-7.56 574.2-5.1 575.54-3.32L575.54-3.32Q576.86-1.54 578.77-0.52 580.69 0.49 583.11 0.49L583.11 0.49Q585.33 0.49 587.01-0.37 588.7-1.22 589.94-2.76L589.94-2.76 590.28 0 596.41 0 596.41-37.5 589.6-37.5 589.6-24.05Q588.38-25.42 586.81-26.16 585.23-26.9 583.16-26.9L583.16-26.9Q580.69-26.9 578.77-25.93 576.86-24.95 575.51-23.17L575.51-23.17Q574.17-21.39 573.48-18.9 572.78-16.41 572.78-13.4ZM579.57-12.89L579.57-12.89 579.57-13.4Q579.57-15.06 579.86-16.52 580.15-17.97 580.79-19.07L580.79-19.07Q581.42-20.14 582.44-20.76 583.45-21.39 584.89-21.39L584.89-21.39Q586.62-21.39 587.77-20.64 588.92-19.9 589.6-18.55L589.6-18.55 589.6-7.86Q588.92-6.54 587.76-5.79 586.6-5.03 584.84-5.03L584.84-5.03Q583.4-5.03 582.4-5.64 581.4-6.25 580.76-7.32L580.76-7.32Q580.13-8.37 579.85-9.8 579.57-11.23 579.57-12.89ZM619.68-26.42L605.3-26.42 605.3-20.87 612.82-20.87 612.82-5.52 605.3-5.52 605.3 0 626.83 0 626.83-5.52 619.68-5.52 619.68-26.42ZM612.33-33.18L612.33-33.18Q612.33-32.4 612.61-31.73 612.89-31.05 613.4-30.59L613.4-30.59Q613.91-30.1 614.64-29.83 615.36-29.57 616.23-29.57L616.23-29.57Q618.04-29.57 619.1-30.58 620.16-31.59 620.16-33.18L620.16-33.18Q620.16-34.77 619.1-35.78 618.04-36.79 616.23-36.79L616.23-36.79Q615.36-36.79 614.64-36.52 613.91-36.25 613.4-35.79L613.4-35.79Q612.89-35.3 612.61-34.63 612.33-33.96 612.33-33.18ZM633.49-26.42L633.49 0 640.3 0 640.3-18.77Q640.65-19.31 641.06-19.75 641.48-20.19 641.99-20.51L641.99-20.51Q642.62-20.95 643.44-21.17 644.26-21.39 645.24-21.39L645.24-21.39Q646.41-21.39 647.34-21.15 648.26-20.92 648.92-20.34L648.92-20.34Q649.58-19.75 649.94-18.74 650.29-17.72 650.29-16.16L650.29-16.16 650.29 0 657.08 0 657.08-16.26Q657.08-19.14 656.41-21.15 655.73-23.17 654.54-24.46L654.54-24.46Q653.32-25.73 651.66-26.32 650-26.9 647.99-26.9L647.99-26.9Q646.43-26.9 645.04-26.46 643.65-26.03 642.48-25.2L642.48-25.2Q641.79-24.71 641.18-24.1 640.57-23.49 640.06-22.75L640.06-22.75 639.64-26.42 633.49-26.42ZM662.81-13.4L662.81-13.4 662.81-12.89Q662.81-10.01 663.56-7.56 664.3-5.1 665.69-3.32L665.69-3.32Q667.08-1.54 669.05-0.52 671.01 0.49 673.48 0.49L673.48 0.49Q674.73 0.49 675.81 0.22 676.9-0.05 677.8-0.54L677.8-0.54Q678.41-0.88 678.95-1.32 679.49-1.76 679.97-2.29L679.97-2.29 679.97-0.78Q679.97 0.56 679.6 1.64 679.22 2.71 678.51 3.44L678.51 3.44Q677.73 4.25 676.57 4.66 675.41 5.08 673.92 5.08L673.92 5.08Q672.99 5.08 672.13 4.9 671.26 4.71 670.45 4.35L670.45 4.35Q669.62 3.98 668.87 3.41 668.11 2.83 667.45 2.08L667.45 2.08 664.4 6.2Q665.25 7.3 666.45 8.09 667.65 8.89 668.99 9.4L668.99 9.4Q670.33 9.91 671.7 10.16 673.07 10.4 674.26 10.4L674.26 10.4Q677.04 10.4 679.35 9.66 681.66 8.91 683.32 7.47L683.32 7.47Q684.95 6.03 685.87 3.93 686.79 1.83 686.79-0.85L686.79-0.85 686.79-26.42 680.61-26.42 680.34-23.9Q679.85-24.51 679.27-25.01 678.68-25.51 678-25.88L678-25.88Q677.09-26.39 675.98-26.65 674.87-26.9 673.53-26.9L673.53-26.9Q671.04-26.9 669.06-25.93 667.08-24.95 665.69-23.17L665.69-23.17Q664.3-21.39 663.56-18.9 662.81-16.41 662.81-13.4ZM669.62-12.89L669.62-12.89 669.62-13.4Q669.62-15.06 669.96-16.52 670.31-17.97 671.01-19.07L671.01-19.07Q671.7-20.14 672.75-20.76 673.8-21.39 675.24-21.39L675.24-21.39Q676.02-21.39 676.69-21.24 677.36-21.09 677.92-20.83L677.92-20.83Q678.58-20.51 679.1-20 679.61-19.48 679.97-18.8L679.97-18.8 679.97-7.62Q679.63-7.01 679.17-6.52 678.7-6.03 678.09-5.69L678.09-5.69Q677.51-5.37 676.79-5.2 676.07-5.03 675.19-5.03L675.19-5.03Q673.75-5.03 672.7-5.64 671.65-6.25 670.97-7.32L670.97-7.32Q670.28-8.37 669.95-9.8 669.62-11.23 669.62-12.89Z" opacity="1" transform="matrix(1,0,0,1,0,0)" fill="#000000" class="slogan-text-1" data-fill-palette-color="secondary" id="text-1"></path></svg></g></svg></g></svg></g></svg></g></svg></g></svg></g></svg></g><g><path d="M245.816 0c68.262 0 123.6 55.338 123.6 123.6 0 68.262-55.338 123.6-123.6 123.6-41.327 0-77.918-20.283-100.359-51.438l4.839 0c21.855 28.883 56.508 47.545 95.52 47.545 66.112 0 119.707-53.595 119.706-119.707 0-66.112-53.595-119.707-119.706-119.707-39.012 0-73.665 18.661-95.52 47.545h-4.839c22.441-31.155 59.031-51.438 100.359-51.438z" fill="#000000" stroke="transparent" data-fill-palette-color="tertiary"></path></g></svg></g><defs></defs></svg><rect width="395.52" height="247.2" fill="none" stroke="none" visibility="hidden"></rect></g></svg></g></svg>